<svg width="33" height="32" viewBox="0 0 33 32" fill="none" xmlns="http://www.w3.org/2000/svg">
<g clip-path="url(#clip0_1013_41)">
<path d="M23.6974 20.456C22.9614 20.456 22.364 19.86 22.364 19.124C22.364 18.388 22.96 17.7906 23.696 17.7906C24.432 17.7906 25.0294 18.3866 25.0294 19.1226C25.0294 19.8586 24.4334 20.4546 23.6974 20.456ZM8.96937 20.456C8.23337 20.456 7.63603 19.86 7.63603 19.124C7.63603 18.388 8.23203 17.7906 8.96803 17.7906C9.70403 17.7906 10.3014 18.3866 10.3014 19.1226C10.3014 19.8586 9.70537 20.4546 8.96937 20.456ZM24.1747 12.4293L26.8374 7.8173C26.9907 7.55196 26.9 7.2133 26.6347 7.05997C26.3694 6.90663 26.0307 6.9973 25.8774 7.26263L23.1814 11.9333C21.12 10.992 18.804 10.468 16.3334 10.468C13.8627 10.468 11.5467 10.992 9.48403 11.932L6.78803 7.26263C6.6347 6.9973 6.29603 6.90663 6.0307 7.05863C5.7667 7.21197 5.6747 7.55063 5.82803 7.81596L8.4907 12.4293C3.91736 14.916 0.790698 19.5453 0.332031 25.016H32.332C31.8747 19.5453 28.748 14.916 24.1747 12.4293Z" fill="white"/>
</g>
<defs>
<clipPath id="clip0_1013_41">
<rect width="32" height="32" fill="white" transform="translate(0.333496)"/>
</clipPath>
</defs>
</svg>
