<svg width="30" height="31" viewBox="0 0 30 31" fill="none" xmlns="http://www.w3.org/2000/svg">
<g clip-path="url(#clip0_1013_34)">
<path d="M22.6672 16.488C22.6965 14.2025 23.8943 12.0917 25.8413 10.8952C24.6081 9.13271 22.6146 8.05593 20.4647 7.98871C18.2024 7.7516 16.0097 9.34171 14.8572 9.34171C13.6826 9.34171 11.908 8.01193 9.9964 8.05104C7.48229 8.13293 5.19429 9.52748 3.97084 11.7263C1.36629 16.2363 3.3084 22.8656 5.80418 26.5115C7.05329 28.2972 8.5114 30.2906 10.4217 30.2209C12.2905 30.1439 12.9884 29.0293 15.2434 29.0293C17.4776 29.0293 18.1327 30.2209 20.081 30.1757C22.0854 30.1427 23.3492 28.3827 24.5543 26.5799C25.4514 25.3076 26.142 23.902 26.5991 22.4146C24.2182 21.4075 22.6696 19.0743 22.6672 16.488Z" fill="white"/>
<path d="M18.9868 5.59068C20.0795 4.27802 20.6185 2.59135 20.4877 0.888794C18.8182 1.06479 17.2745 1.86291 16.1672 3.12424C15.0733 4.36968 14.5184 5.99768 14.626 7.65257C16.3187 7.66968 17.926 6.90946 18.9868 5.59068Z" fill="white"/>
</g>
<defs>
<clipPath id="clip0_1013_34">
<rect width="29.3333" height="29.3333" fill="white" transform="translate(0 0.888794)"/>
</clipPath>
</defs>
</svg>
