<svg width="35" height="33" viewBox="0 0 35 33" fill="none" xmlns="http://www.w3.org/2000/svg">
<path d="M11.8536 26.3294C11.8536 26.4646 11.6981 26.5728 11.502 26.5728C11.2789 26.5931 11.1233 26.4849 11.1233 26.3294C11.1233 26.1941 11.2789 26.0859 11.4749 26.0859C11.6778 26.0657 11.8536 26.1738 11.8536 26.3294ZM9.75076 26.0251C9.70343 26.1603 9.83866 26.3158 10.0415 26.3564C10.2173 26.424 10.4202 26.3564 10.4607 26.2212C10.5013 26.0859 10.3728 25.9304 10.17 25.8696C9.99417 25.8222 9.79809 25.8899 9.75076 26.0251ZM12.7394 25.9101C12.5433 25.9575 12.408 26.0859 12.4283 26.2415C12.4486 26.3767 12.6244 26.4646 12.8273 26.4173C13.0233 26.3699 13.1586 26.2415 13.1383 26.1062C13.118 25.9778 12.9354 25.8899 12.7394 25.9101ZM17.1884 0C7.8102 0 0.63623 7.11988 0.63623 16.4981C0.63623 23.9966 5.35577 30.4133 12.097 32.6717C12.9625 32.8272 13.2668 32.293 13.2668 31.8535C13.2668 31.4343 13.2465 29.1219 13.2465 27.702C13.2465 27.702 8.5134 28.7162 7.51946 25.687C7.51946 25.687 6.74864 23.7194 5.63976 23.2123C5.63976 23.2123 4.09137 22.1507 5.74794 22.171C5.74794 22.171 7.43156 22.3063 8.35789 23.9155C9.83866 26.5254 12.3201 25.7749 13.287 25.3287C13.4426 24.2468 13.882 23.4963 14.3689 23.05C10.5892 22.6308 6.77569 22.0831 6.77569 15.5785C6.77569 13.7191 7.28957 12.786 8.37141 11.596C8.19561 11.1565 7.62088 9.34442 8.54721 7.00493C9.96037 6.56544 13.2127 8.83055 13.2127 8.83055C14.565 8.4519 16.0187 8.25582 17.4589 8.25582C18.8991 8.25582 20.3528 8.4519 21.7051 8.83055C21.7051 8.83055 24.9574 6.55867 26.3706 7.00493C27.2969 9.35118 26.7222 11.1565 26.5464 11.596C27.6282 12.7928 28.2908 13.7259 28.2908 15.5785C28.2908 22.1034 24.3083 22.624 20.5286 23.05C21.1507 23.5842 21.6781 24.5984 21.6781 26.1874C21.6781 28.466 21.6578 31.2856 21.6578 31.84C21.6578 32.2795 21.9688 32.8137 22.8275 32.6581C29.5891 30.4133 34.1734 23.9966 34.1734 16.4981C34.1734 7.11988 26.5667 0 17.1884 0ZM7.20843 23.3205C7.12053 23.3881 7.14081 23.5436 7.25576 23.6721C7.36394 23.7803 7.51946 23.8276 7.60736 23.7397C7.69526 23.6721 7.67497 23.5166 7.56003 23.3881C7.45184 23.2799 7.29633 23.2326 7.20843 23.3205ZM6.47818 22.7728C6.43085 22.8607 6.49847 22.9689 6.6337 23.0365C6.74188 23.1041 6.87711 23.0838 6.92444 22.9892C6.97178 22.9013 6.90416 22.7931 6.76893 22.7255C6.6337 22.6849 6.52551 22.7052 6.47818 22.7728ZM8.66892 25.1799C8.56073 25.2678 8.6013 25.4706 8.75682 25.5991C8.91233 25.7546 9.10842 25.7749 9.19631 25.6667C9.28421 25.5788 9.24365 25.376 9.10842 25.2475C8.95966 25.092 8.75682 25.0717 8.66892 25.1799ZM7.8981 24.186C7.78992 24.2536 7.78992 24.4294 7.8981 24.5849C8.00629 24.7404 8.18885 24.808 8.27675 24.7404C8.38493 24.6525 8.38493 24.4767 8.27675 24.3212C8.18209 24.1657 8.00629 24.0981 7.8981 24.186Z" fill="#D7D7D7"/>
</svg>
