<svg width="29" height="28" viewBox="0 0 29 28" fill="none" xmlns="http://www.w3.org/2000/svg">
<path d="M9.72543 22.5456C9.72543 22.6614 9.59226 22.754 9.42436 22.754C9.23329 22.7714 9.10013 22.6787 9.10013 22.5456C9.10013 22.4298 9.23329 22.3371 9.4012 22.3371C9.57489 22.3198 9.72543 22.4124 9.72543 22.5456ZM7.92479 22.285C7.88427 22.4008 8.00006 22.534 8.17376 22.5687C8.32429 22.6266 8.49799 22.5687 8.53273 22.4529C8.56746 22.3371 8.45746 22.204 8.28376 22.1518C8.13323 22.1113 7.96532 22.1692 7.92479 22.285ZM10.4839 22.1866C10.316 22.2271 10.2002 22.3371 10.2176 22.4703C10.2349 22.5861 10.3855 22.6614 10.5592 22.6208C10.7271 22.5803 10.8429 22.4703 10.8255 22.3545C10.8081 22.2445 10.6518 22.1692 10.4839 22.1866ZM14.2936 0C6.26312 0 0.120117 6.09668 0.120117 14.1272C0.120117 20.5481 4.16141 26.0426 9.93386 27.9764C10.675 28.1096 10.9355 27.6522 10.9355 27.2758C10.9355 26.9169 10.9181 24.9368 10.9181 23.7209C10.9181 23.7209 6.86526 24.5894 6.01415 21.9955C6.01415 21.9955 5.35411 20.3107 4.40458 19.8764C4.40458 19.8764 3.07872 18.9674 4.49722 18.9848C4.49722 18.9848 5.93889 19.1006 6.73209 20.4786C8.00006 22.7135 10.1249 22.0708 10.9529 21.6887C11.086 20.7623 11.4624 20.1196 11.8792 19.7375C8.64273 19.3785 5.37727 18.9096 5.37727 13.3397C5.37727 11.7475 5.8173 10.9485 6.74367 9.92954C6.59314 9.5532 6.101 8.00153 6.89421 5.99825C8.10428 5.62191 10.8892 7.5615 10.8892 7.5615C12.0471 7.23728 13.292 7.06937 14.5252 7.06937C15.7584 7.06937 17.0032 7.23728 18.1612 7.5615C18.1612 7.5615 20.9461 5.61613 22.1562 5.99825C22.9494 8.00732 22.4572 9.5532 22.3067 9.92954C23.2331 10.9543 23.8005 11.7533 23.8005 13.3397C23.8005 18.9269 20.3903 19.3727 17.1538 19.7375C17.6864 20.1949 18.138 21.0634 18.138 22.424C18.138 24.3751 18.1207 26.7895 18.1207 27.2643C18.1207 27.6406 18.387 28.098 19.1223 27.9648C24.9121 26.0426 28.8376 20.5481 28.8376 14.1272C28.8376 6.09668 22.3241 0 14.2936 0ZM5.74782 19.9691C5.67255 20.027 5.68992 20.1602 5.78835 20.2702C5.88099 20.3628 6.01415 20.4033 6.08942 20.3281C6.16469 20.2702 6.14732 20.137 6.04889 20.027C5.95626 19.9343 5.82309 19.8938 5.74782 19.9691ZM5.12252 19.5001C5.08199 19.5754 5.13989 19.668 5.25569 19.7259C5.34832 19.7838 5.46412 19.7664 5.50465 19.6854C5.54518 19.6101 5.48728 19.5175 5.37148 19.4596C5.25569 19.4248 5.16305 19.4422 5.12252 19.5001ZM6.99842 21.5613C6.90579 21.6366 6.94052 21.8103 7.07369 21.9203C7.20686 22.0534 7.37476 22.0708 7.45003 21.9782C7.5253 21.9029 7.49056 21.7292 7.37476 21.6192C7.24739 21.486 7.07369 21.4687 6.99842 21.5613ZM6.33838 20.7102C6.24575 20.7681 6.24575 20.9186 6.33838 21.0518C6.43102 21.1849 6.58735 21.2428 6.66261 21.1849C6.75525 21.1097 6.75525 20.9591 6.66261 20.826C6.58156 20.6928 6.43102 20.6349 6.33838 20.7102Z" fill="white"/>
</svg>
