<svg width="28" height="28" viewBox="0 0 28 28" fill="none" xmlns="http://www.w3.org/2000/svg">
<path d="M23.8565 23.8566H19.7077V17.3596C19.7077 15.8102 19.6801 13.8165 17.5498 13.8165C15.3892 13.8165 15.0581 15.5039 15.0581 17.2479V23.8566H10.9107V10.4956H14.8939V12.3209H14.9491C15.7617 10.933 17.2711 10.1038 18.8785 10.1631C23.0838 10.1631 23.8578 12.9294 23.8578 16.5263L23.8565 23.8566ZM6.22936 8.66887C4.89933 8.66887 3.82178 7.59132 3.82178 6.26128C3.82178 4.93125 4.89933 3.8537 6.22936 3.8537C7.5594 3.8537 8.63694 4.93125 8.63694 6.26128C8.63694 7.59132 7.5594 8.66887 6.22936 8.66887ZM8.30306 23.8566H4.15015V10.4956H8.30306V23.8566ZM25.9246 0.00156816H2.06542C0.938199 -0.0108492 0.013797 0.892857 0 2.02007V25.9772C0.013797 27.1058 0.938199 28.0096 2.06542 27.9971H25.9246C27.0546 28.0109 27.9831 27.1072 27.9983 25.9772V2.01869C27.9818 0.888717 27.0532 -0.0149883 25.9246 0.000188392" fill="white"/>
</svg>
