<svg width="29" height="27" viewBox="0 0 29 27" fill="none" xmlns="http://www.w3.org/2000/svg">
<path d="M28.9026 6.09521L19.0826 15.9153C17.9876 17.0075 16.5042 17.6208 14.9576 17.6208C13.4111 17.6208 11.9277 17.0075 10.8327 15.9153L1.01265 6.09521C0.996314 6.27953 0.958984 6.44635 0.958984 6.6295V20.6281C0.960837 22.1745 1.57595 23.657 2.66941 24.7505C3.76286 25.8439 5.24538 26.4591 6.79175 26.4609H23.1235C24.6699 26.4591 26.1524 25.8439 27.2459 24.7505C28.3393 23.657 28.9544 22.1745 28.9563 20.6281V6.6295C28.9563 6.44635 28.9189 6.27953 28.9026 6.09521Z" fill="white"/>
<path d="M17.4333 14.2659L28.0886 3.60944C27.5724 2.75356 26.8444 2.04513 25.9748 1.55249C25.1051 1.05984 24.1232 0.799606 23.1238 0.796875H6.792C5.79252 0.799606 4.81061 1.05984 3.94097 1.55249C3.07134 2.04513 2.34332 2.75356 1.82715 3.60944L12.4825 14.2659C13.1399 14.9207 14.03 15.2884 14.9579 15.2884C15.8858 15.2884 16.7759 14.9207 17.4333 14.2659Z" fill="white"/>
</svg>
