<svg width="36" height="33" viewBox="0 0 36 33" fill="none" xmlns="http://www.w3.org/2000/svg">
<path d="M27.786 0H8.37084C6.19306 0.00236054 4.10514 0.86439 2.56521 2.39695C1.02528 3.92951 0.15911 6.00744 0.156738 8.1748L0.156738 24.5244C0.15911 26.6918 1.02528 28.7697 2.56521 30.3023C4.10514 31.8348 6.19306 32.6969 8.37084 32.6992H27.786C29.9638 32.6969 32.0517 31.8348 33.5916 30.3023C35.1316 28.7697 35.9977 26.6918 36.0001 24.5244V8.1748C35.9977 6.00744 35.1316 3.92951 33.5916 2.39695C32.0517 0.86439 29.9638 0.00236054 27.786 0ZM27.786 4.45898C28.6917 4.46198 29.5649 4.79571 30.2398 5.39686L20.5322 15.058C19.8729 15.6847 18.9962 16.0344 18.0844 16.0344C17.1726 16.0344 16.2959 15.6847 15.6366 15.058L5.92901 5.39686C6.60085 4.79842 7.46923 4.46489 8.37084 4.45898H27.786ZM27.786 28.2402H8.37084C7.38061 28.2402 6.43093 27.8487 5.73073 27.1519C5.03053 26.455 4.63716 25.5099 4.63716 24.5244V10.4296L12.4615 18.2164C13.1989 18.9506 14.0744 19.5331 15.0381 19.9304C16.0017 20.3278 17.0346 20.5323 18.0777 20.5323C19.1208 20.5323 20.1536 20.3278 21.1173 19.9304C22.0809 19.5331 22.9565 18.9506 23.6939 18.2164L31.5197 10.4296V24.5244C31.5197 25.5099 31.1263 26.455 30.4261 27.1519C29.7259 27.8487 28.7762 28.2402 27.786 28.2402Z" fill="#D7D7D7"/>
</svg>
