<svg width="234" height="235" viewBox="0 0 234 235" fill="none" xmlns="http://www.w3.org/2000/svg">
<path fill-rule="evenodd" clip-rule="evenodd" d="M199.714 34.249C177.732 12.2478 148.508 0.121725 117.375 0.111938C53.2217 0.111938 1.00806 52.3158 0.9787 116.499C0.968913 137.013 6.33219 157.037 16.5205 174.692L0 235L61.6973 218.812C78.6973 228.09 97.8406 232.974 117.317 232.984H117.366C181.51 232.984 233.733 180.77 233.763 116.587C233.782 85.4937 221.685 56.2404 199.714 34.249ZM117.375 213.322H117.336C99.9742 213.322 82.9546 208.653 68.0979 199.835L64.5648 197.741L27.9517 207.342L37.7289 171.639L35.4289 167.979C25.7398 152.574 20.631 134.771 20.6408 116.499C20.6604 63.1598 64.0657 19.7642 117.424 19.7642C143.262 19.7642 167.553 29.8448 185.816 48.127C204.079 66.4189 214.13 90.72 214.12 116.567C214.091 169.926 170.695 213.322 117.375 213.322ZM170.441 140.869C167.534 139.41 153.235 132.373 150.563 131.405C147.901 130.436 145.963 129.946 144.016 132.853C142.068 135.76 136.509 142.317 134.806 144.265C133.113 146.202 131.41 146.447 128.503 144.989C125.597 143.531 116.221 140.467 105.112 130.553C96.4705 122.841 90.6276 113.318 88.9345 110.402C87.2413 107.485 88.7583 105.919 90.2068 104.471C91.5182 103.169 93.1135 101.075 94.5718 99.3717C96.0398 97.6883 96.5194 96.4748 97.4981 94.5271C98.467 92.5893 97.9875 90.8864 97.2534 89.4281C96.5194 87.9796 90.7059 73.6612 88.2885 67.838C85.9299 62.1615 83.5321 62.9347 81.741 62.8466C80.0479 62.7585 78.1101 62.7487 76.1624 62.7487C74.2246 62.7487 71.0732 63.473 68.4111 66.3895C65.7491 69.306 58.2327 76.3429 58.2327 90.6515C58.2327 104.97 68.6558 118.799 70.1043 120.737C71.5528 122.675 90.608 152.055 119.783 164.651C126.722 167.646 132.144 169.437 136.362 170.778C143.331 172.99 149.673 172.676 154.684 171.933C160.272 171.101 171.889 164.896 174.316 158.103C176.743 151.311 176.743 145.478 176.009 144.274C175.285 143.051 173.347 142.327 170.441 140.869Z" fill="#D7D7D7"/>
</svg>
